<?xml version="1.0" encoding="UTF-8" standalone="no"?>
<!-- Uploaded to: SVG Repo, www.svgrepo.com, Generator: SVG Repo Mixer Tools -->

<svg
   width="800px"
   height="800px"
   viewBox="0 0 24 24"
   fill="none"
   version="1.1"
   id="svg5"
   sodipodi:docname="veterinary.svg"
   inkscape:version="1.3.2 (091e20e, 2023-11-25, custom)"
   xmlns:inkscape="http://www.inkscape.org/namespaces/inkscape"
   xmlns:sodipodi="http://sodipodi.sourceforge.net/DTD/sodipodi-0.dtd"
   xmlns="http://www.w3.org/2000/svg"
   xmlns:svg="http://www.w3.org/2000/svg">
  <defs
     id="defs5" />
  <sodipodi:namedview
     id="namedview5"
     pagecolor="#ffffff"
     bordercolor="#000000"
     borderopacity="0.25"
     inkscape:showpageshadow="2"
     inkscape:pageopacity="0.0"
     inkscape:pagecheckerboard="0"
     inkscape:deskcolor="#d1d1d1"
     inkscape:zoom="1.02625"
     inkscape:cx="400.48721"
     inkscape:cy="400"
     inkscape:window-width="1920"
     inkscape:window-height="1017"
     inkscape:window-x="-8"
     inkscape:window-y="-8"
     inkscape:window-maximized="1"
     inkscape:current-layer="svg5" />
  <path
     d="m 3.6894259,16.929369 c -0.2573841,3.099332 2.0805206,5.630274 5.1905774,5.630274 h 5.1369237 c 3.496133,0 5.898383,-2.820499 5.31927,-6.273735 -0.611288,-3.624824 -4.107421,-6.5954642 -7.785867,-6.5954642 -3.9894197,0 -7.5284499,3.2601972 -7.8609041,7.2389252 z"
     stroke="#292d32"
     stroke-width="1.56302"
     stroke-linecap="round"
     stroke-linejoin="round"
     id="path1"
     style="fill:#ffffff" />
  <path
     d="m 10.18834,7.00936 c 1.480709,0 2.681083,-1.2003639 2.681083,-2.6810834 0,-1.4807195 -1.200374,-2.6810834 -2.681083,-2.6810834 -1.4807518,0 -2.6811157,1.2003639 -2.6811157,2.6810834 0,1.4807195 1.2003639,2.6810834 2.6811157,2.6810834 z"
     stroke="#292d32"
     stroke-width="1.56302"
     stroke-linecap="round"
     stroke-linejoin="round"
     id="path2"
     style="fill:#ffffff" />
  <path
     d="m 17.51306,8.2962264 c 1.184609,0 2.144867,-0.960289 2.144867,-2.1448667 0,-1.1845777 -0.960258,-2.1448667 -2.144867,-2.1448667 -1.184503,0 -2.144868,0.960289 -2.144868,2.1448667 0,1.1845777 0.960365,2.1448667 2.144868,2.1448667 z"
     stroke="#292d32"
     stroke-width="1.56302"
     stroke-linecap="round"
     stroke-linejoin="round"
     id="path3"
     style="fill:#ffffff" />
  <path
     d="m 21.481063,12.586013 c 0.888404,0 1.60865,-0.720246 1.60865,-1.60865 0,-0.88851 -0.720246,-1.6087032 -1.60865,-1.6087032 -0.888404,0 -1.60865,0.7201932 -1.60865,1.6087032 0,0.888404 0.720246,1.60865 1.60865,1.60865 z"
     stroke="#292d32"
     stroke-width="1.56302"
     stroke-linecap="round"
     stroke-linejoin="round"
     id="path4"
     style="fill:#ffffff" />
  <path
     d="m 3.2174908,10.441147 c 1.1845777,0 2.1448667,-0.9603429 2.1448667,-2.1449206 0,-1.1845777 -0.960289,-2.1448667 -2.1448667,-2.1448667 -1.1845777,0 -2.1448667,0.960289 -2.1448667,2.1448667 0,1.1845777 0.960289,2.1449206 2.1448667,2.1449206 z"
     stroke="#292d32"
     stroke-width="1.56302"
     stroke-linecap="round"
     stroke-linejoin="round"
     id="path5"
     style="fill:#ffffff" />
  <rect
     style="fill:#ff0000;stroke-width:0.025637"
     id="rect5"
     width="2.3678439"
     height="6.9573693"
     x="10.114494"
     y="12.7162" />
  <rect
     style="fill:#ff0000;stroke-width:0.025637"
     id="rect5-3"
     width="2.3678439"
     height="6.9573693"
     x="15.124045"
     y="-14.506015"
     transform="rotate(89.083402)" />
</svg>
