<?xml version="1.0" encoding="UTF-8" standalone="no"?>
<!-- Uploaded to: SVG Repo, www.svgrepo.com, Generator: SVG Repo Mixer Tools -->

<svg
   width="800px"
   height="800px"
   viewBox="0 0 24 24"
   fill="none"
   version="1.1"
   id="svg1"
   sodipodi:docname="dog_park.svg"
   inkscape:version="1.3.2 (091e20e, 2023-11-25, custom)"
   xmlns:inkscape="http://www.inkscape.org/namespaces/inkscape"
   xmlns:sodipodi="http://sodipodi.sourceforge.net/DTD/sodipodi-0.dtd"
   xmlns="http://www.w3.org/2000/svg"
   xmlns:svg="http://www.w3.org/2000/svg">
  <defs
     id="defs1" />
  <sodipodi:namedview
     id="namedview1"
     pagecolor="#ffffff"
     bordercolor="#000000"
     borderopacity="0.25"
     inkscape:showpageshadow="2"
     inkscape:pageopacity="0.0"
     inkscape:pagecheckerboard="0"
     inkscape:deskcolor="#d1d1d1"
     inkscape:zoom="1.02625"
     inkscape:cx="400.48721"
     inkscape:cy="400"
     inkscape:window-width="1920"
     inkscape:window-height="1017"
     inkscape:window-x="-8"
     inkscape:window-y="-8"
     inkscape:window-maximized="1"
     inkscape:current-layer="svg1" />
  <rect
     style="fill:#ffffff;stroke-width:0.0319749"
     id="rect1"
     width="24.146164"
     height="24.087698"
     x="-0.087697931"
     y="0" />
  <path
     fill-rule="evenodd"
     clip-rule="evenodd"
     d="M 3.15452,1.01195 C 5.11987,1.32041 7.17569,2.2474 8.72607,3.49603 9.75381,3.17407 10.8558,2.99995 12,2.99995 c 1.1519,0 2.261,0.17646 3.2946,0.50255 1.5874,-1.22762 3.5481,-2.18913 5.5408,-2.48911 0.4242,-0.06247 0.8654,0.15195 1.0591,0.53934 0.7774,1.83685 0.8038,4.02714 0.3257,5.93975 L 22.2128,7.52213 C 22.0847,8.03536 21.9191,8.69868 21.3876,8.92182 21.7827,9.89315 22,10.9466 22,12.0526 c 0,2.7724 -1.1382,5.6248 -2.1588,8.1822 v 0 l -0.1033,0.2588 c -0.6197,1.555 -2.0063,2.626 -3.6129,2.9244 l -2.2701,0.4217 c -0.7,0.13 -1.3987,-0.1225 -1.8549,-0.6315 -0.4562,0.509 -1.1548,0.7615 -1.8548,0.6315 L 7.87506,23.418 C 6.26852,23.1196 4.88189,22.0486 4.26214,20.4936 L 4.15891,20.2348 C 3.13833,17.6774 2.00004,14.825 2.00004,12.0526 2.00004,10.9466 2.21737,9.89315 2.6125,8.92182 2.08046,8.69845 1.91916,8.05124 1.7909,7.53658 L 1.7799,7.49248 C 1.32311,5.66527 1.23531,3.2968 2.10561,1.55273 2.29827,1.16741 2.72906,0.945855 3.15452,1.01195 Z M 6.58478,4.44052 C 5.45516,5.10067 4.47474,5.9652 3.71373,6.98132 3.41572,5.76461 3.41236,4.41153 3.67496,3.18754 4.68842,3.48029 5.68018,3.89536 6.58478,4.44052 Z M 20.2863,6.98133 c -0.756,-1.00949 -1.7286,-1.86938 -2.8489,-2.52786 0.899,-0.55297 1.8669,-0.99598 2.8849,-1.27892 0.2661,1.22744 0.263,2.58613 -0.036,3.80678 z M 8.85364,5.56694 C 9.81678,5.20285 10.8797,4.99995 12,4.99995 c 1.1204,0 2.1833,0.2029 3.1464,0.56699 C 18.0554,6.66661 20,9.1982 20,12.0526 c 0,2.415 -1.0109,4.935 -1.9137,7.1854 l -10e-5,2e-4 c -0.0695,0.1733 -0.1384,0.345 -0.2061,0.5149 -0.351,0.8807 -1.1491,1.5181 -2.1204,1.6985 L 13.4896,21.8733 12.912,20.5896 C 12.7505,20.2307 12.3935,19.9999 12,19.9999 c -0.3935,0 -0.7504,0.2308 -0.9119,0.5897 L 10.5104,21.8733 8.24033,21.4516 C 7.26908,21.2712 6.471,20.6338 6.12001,19.7531 6.05237,19.5834 5.98357,19.4119 5.91414,19.2388 l -1.9e-4,-4e-4 -1.4e-4,-4e-4 C 5.01102,16.9876 4.00004,14.4676 4.00004,12.0526 c 0,-2.8544 1.94468,-5.38599 4.8536,-6.48566 z M 10.5,15.9999 c -0.3788,0 -0.72503,0.214 -0.89443,0.5528 C 9.43618,16.8915 9.47274,17.2969 9.7,17.5999 l 1.5,2 c 0.1889,0.2518 0.4852,0.4 0.8,0.4 0.3148,0 0.6111,-0.1482 0.8,-0.4 l 1.5,-2 c 0.2273,-0.303 0.2638,-0.7084 0.0944,-1.0472 C 14.225,16.2139 13.8788,15.9999 13.5,15.9999 Z"
     fill="#000000"
     id="path1"
     sodipodi:nodetypes="ccsccccscsscccccccccsccccccccccccccscsccccccscccccccscscccsccsss" />
  <path
     style="fill:#a66342;stroke-width:0.0198119"
     d="m 11.395647,11.678269 h -1.323103 c -0.1827264,0 -0.3307801,0.148055 -0.3307801,0.330781 v 3.644213 c 0,0.182726 0.1480537,0.330781 0.3307801,0.330781 h 1.323103 c 0.182726,0 0.330781,-0.148055 0.330781,-0.330781 V 12.00905 c 0,-0.182726 -0.148055,-0.330781 -0.330781,-0.330781 z"
     id="path1-4" />
  <path
     style="fill:#995b3d;stroke-width:0.0198119"
     d="m 11.395647,11.678269 h -0.661542 v 4.305775 h 0.661542 c 0.182726,0 0.330781,-0.148055 0.330781,-0.330781 V 12.00905 c 0,-0.182726 -0.148055,-0.330781 -0.330781,-0.330781 z"
     id="path2" />
  <path
     style="fill:#7bcc29;stroke-width:0.0198119"
     d="M 16.908545,15.984044 H 7.4263785 c -0.1827259,0 -0.3307809,-0.148055 -0.3307809,-0.330781 0,-0.182726 0.148055,-0.330781 0.3307809,-0.330781 h 9.4821855 c 0.182607,0 0.330781,0.148055 0.330781,0.330781 0,0.182726 -0.148193,0.330781 -0.3308,0.330781 z"
     id="path3" />
  <path
     style="fill:#a66342;stroke-width:0.0198119"
     d="m 14.465214,14.330438 -1.084923,1.089361 c -0.06368,0.06477 -0.09562,0.149204 -0.09589,0.233464 h 0.796754 l 0.842723,-0.853103 0.854845,0.853103 h 0.799533 c -2.78e-4,-0.08426 -0.03275,-0.168699 -0.09751,-0.233464 l -1.082723,-1.08934 1.082723,-1.089342 c 0.08196,-0.08198 0.11218,-0.195445 0.09085,-0.300191 h -0.72603 l -0.921692,0.91981 -0.914203,-0.91981 h -0.7187 c -0.02096,0.104746 0.0087,0.218209 0.08933,0.300191 z"
     id="path4" />
  <path
     style="fill:#995b3d;stroke-width:0.0198119"
     d="m 16.57828,15.653263 c -2.79e-4,-0.08426 -0.03275,-0.168699 -0.09751,-0.233464 l -1.082725,-1.08934 1.082725,-1.089342 c 0.08196,-0.08198 0.11218,-0.195445 0.09085,-0.300191 h -0.726029 l -0.921692,0.91981 v 0.939405 l 0.854847,0.853122 z"
     id="path5" />
  <path
     style="fill:#ffde33;stroke-width:0.0198119"
     d="m 16.908545,13.338136 h -3.969268 c -0.182726,0 -0.330781,-0.148055 -0.330781,-0.330781 0,-0.182726 0.148055,-0.330781 0.330781,-0.330781 h 3.969287 c 0.182726,0 0.330781,0.148055 0.330781,0.330781 -2e-5,0.182726 -0.148075,0.330781 -0.3308,0.330781 z"
     id="path6" />
  <path
     style="fill:#ffbc33;stroke-width:0.0198119"
     d="M 16.908545,12.676594 H 14.9239 v 0.661542 h 1.984645 c 0.182725,0 0.33078,-0.148055 0.33078,-0.330781 0,-0.182706 -0.148055,-0.330761 -0.33078,-0.330761 z"
     id="path7" />
  <path
     style="fill:#6eb825;stroke-width:0.0198119"
     d="m 16.908545,15.322502 h -6.17444 v 0.661542 h 6.17444 c 0.182607,0 0.33078,-0.148055 0.33078,-0.330781 0,-0.182726 -0.148173,-0.330761 -0.33078,-0.330761 z"
     id="path8" />
  <path
     style="fill:#7bcc29;stroke-width:0.0198119"
     d="m 13.047312,8.0565033 c -0.05292,-1.2304822 -1.06949,-2.2161864 -2.313207,-2.2161864 -1.2414973,0 -2.2558694,0.9812869 -2.3132055,2.2095693 -0.813677,0.385897 -1.3253019,1.230481 -1.3253019,2.0904788 0,1.276783 1.0386229,2.315425 2.3154246,2.315425 0.4741008,0 0.9327868,-0.147737 1.3231018,-0.423382 0.390317,0.275645 0.848984,0.423382 1.323104,0.423382 1.276782,0 2.315425,-1.038622 2.315425,-2.315425 -3.9e-5,-0.8952829 -0.522661,-1.7045818 -1.325341,-2.0838617 z"
     id="path9" />
  <path
     style="fill:#6eb825;stroke-width:0.0198119"
     d="m 14.372614,10.140365 c 0,1.276783 -1.038623,2.315425 -2.315425,2.315425 -0.474101,0 -0.932788,-0.147737 -1.323104,-0.423382 V 5.8403169 c 1.243717,0 2.260289,0.9857042 2.313206,2.2161864 0.802701,0.3792799 1.325323,1.1885788 1.325323,2.0838617 z"
     id="path10" />
</svg>
